<svg width="15" height="14" viewBox="0 0 15 14" fill="none" xmlns="http://www.w3.org/2000/svg">
<path fill-rule="evenodd" clip-rule="evenodd" d="M6.12489 10.2498C3.84678 10.2498 2 8.403 2 6.12489C2 3.84678 3.84678 2 6.12489 2C8.403 2 10.2498 3.84678 10.2498 6.12489C10.2498 8.403 8.403 10.2498 6.12489 10.2498ZM0 6.12489C0 2.74221 2.74221 0 6.12489 0C9.50756 0 12.2498 2.74221 12.2498 6.12489C12.2498 7.25713 11.9425 8.31762 11.4069 9.22753C11.4132 9.2335 11.4194 9.23957 11.4256 9.24573L13.7224 11.5426C14.1129 11.9331 14.1129 12.5663 13.7224 12.9568C13.3319 13.3473 12.6987 13.3473 12.3082 12.9568L10.1195 10.768C9.04703 11.6915 7.65115 12.2498 6.12489 12.2498C2.74221 12.2498 0 9.50756 0 6.12489Z" fill="white"/>
</svg>
